<?xml version="1.0" encoding="UTF-8" standalone="no"?>
<!DOCTYPE svg PUBLIC "-//W3C//DTD SVG 1.1//EN"
 "http://www.w3.org/Graphics/SVG/1.1/DTD/svg11.dtd">
<!-- Generated by graphviz version 2.40.1 (20161225.0304)
 -->
<!-- Title: dependencies Pages: 1 -->
<svg width="504pt" height="211pt"
 viewBox="0.00 0.00 504.00 211.00" xmlns="http://www.w3.org/2000/svg" xmlns:xlink="http://www.w3.org/1999/xlink">
<g id="graph0" class="graph" transform="scale(1 1) rotate(0) translate(4 207)">
<title>dependencies</title>
<polygon fill="#ffffff" stroke="transparent" points="-4,4 -4,-207 500,-207 500,4 -4,4"/>
<text text-anchor="start" x="227.0091" y="-42.4" font-family="sans-serif" font-weight="bold" font-size="14.00" fill="#000000">Legend</text>
<polygon fill="#ffffb3" stroke="transparent" points="14,-10 14,-30 34,-30 34,-10 14,-10"/>
<text text-anchor="start" x="37.629" y="-15.4" font-family="sans-serif" font-size="14.00" fill="#000000"> &#160;Declarations</text>
<polygon fill="#8dd3c7" stroke="transparent" points="127,-10 127,-30 147,-30 147,-10 127,-10"/>
<text text-anchor="start" x="150.7251" y="-15.4" font-family="sans-serif" font-size="14.00" fill="#000000"> &#160;Module</text>
<polygon fill="#80b1d3" stroke="transparent" points="213,-10 213,-30 233,-30 233,-10 213,-10"/>
<text text-anchor="start" x="236.7812" y="-15.4" font-family="sans-serif" font-size="14.00" fill="#000000"> &#160;Bootstrap</text>
<polygon fill="#fdb462" stroke="transparent" points="310,-10 310,-30 330,-30 330,-10 310,-10"/>
<text text-anchor="start" x="333.6732" y="-15.4" font-family="sans-serif" font-size="14.00" fill="#000000"> &#160;Providers</text>
<polygon fill="#fb8072" stroke="transparent" points="406,-10 406,-30 426,-30 426,-10 406,-10"/>
<text text-anchor="start" x="429.7258" y="-15.4" font-family="sans-serif" font-size="14.00" fill="#000000"> &#160;Exports</text>
<g id="clust1" class="cluster">
<title>cluster_WeatherModule</title>
<polygon fill="none" stroke="#000000" stroke-dasharray="1,5" points="62,-70 62,-195 434,-195 434,-70 62,-70"/>
</g>
<g id="clust2" class="cluster">
<title>cluster_WeatherModule_declarations</title>
<polygon fill="none" stroke="#000000" points="70,-78 70,-130 426,-130 426,-78 70,-78"/>
</g>
<!-- WeatherChartComponent -->
<g id="node1" class="node">
<title>WeatherChartComponent</title>
<polygon fill="#ffffb3" stroke="#000000" points="417.8445,-122 258.1555,-122 258.1555,-86 417.8445,-86 417.8445,-122"/>
<text text-anchor="middle" x="338" y="-99.8" font-family="Times,serif" font-size="14.00" fill="#000000">WeatherChartComponent</text>
</g>
<!-- WeatherModule -->
<g id="node3" class="node">
<title>WeatherModule</title>
<polygon fill="#8dd3c7" stroke="#000000" points="301.4594,-187 298.4594,-191 277.4594,-191 274.4594,-187 194.5406,-187 194.5406,-151 301.4594,-151 301.4594,-187"/>
<text text-anchor="middle" x="248" y="-164.8" font-family="Times,serif" font-size="14.00" fill="#000000">WeatherModule</text>
</g>
<!-- WeatherChartComponent&#45;&gt;WeatherModule -->
<g id="edge1" class="edge">
<title>WeatherChartComponent&#45;&gt;WeatherModule</title>
<path fill="none" stroke="#000000" d="M279.7788,-122.1061C279.7788,-122.1061 279.7788,-140.991 279.7788,-140.991"/>
<polygon fill="#000000" stroke="#000000" points="276.2788,-140.9909 279.7788,-150.991 283.2788,-140.991 276.2788,-140.9909"/>
</g>
<!-- WeatherHomeComponent -->
<g id="node2" class="node">
<title>WeatherHomeComponent</title>
<polygon fill="#ffffb3" stroke="#000000" points="240.4538,-122 77.5462,-122 77.5462,-86 240.4538,-86 240.4538,-122"/>
<text text-anchor="middle" x="159" y="-99.8" font-family="Times,serif" font-size="14.00" fill="#000000">WeatherHomeComponent</text>
</g>
<!-- WeatherHomeComponent&#45;&gt;WeatherModule -->
<g id="edge2" class="edge">
<title>WeatherHomeComponent&#45;&gt;WeatherModule</title>
<path fill="none" stroke="#000000" d="M217.4986,-122.1061C217.4986,-122.1061 217.4986,-140.991 217.4986,-140.991"/>
<polygon fill="#000000" stroke="#000000" points="213.9987,-140.9909 217.4986,-150.991 220.9987,-140.991 213.9987,-140.9909"/>
</g>
</g>
</svg>
