<?xml version="1.0" encoding="UTF-8" standalone="no"?>
<!DOCTYPE svg PUBLIC "-//W3C//DTD SVG 1.1//EN"
 "http://www.w3.org/Graphics/SVG/1.1/DTD/svg11.dtd">
<!-- Generated by graphviz version 2.40.1 (20161225.0304)
 -->
<!-- Title: dependencies Pages: 1 -->
<svg width="595pt" height="284pt"
 viewBox="0.00 0.00 595.00 284.00" xmlns="http://www.w3.org/2000/svg" xmlns:xlink="http://www.w3.org/1999/xlink">
<g id="graph0" class="graph" transform="scale(1 1) rotate(0) translate(4 280)">
<title>dependencies</title>
<polygon fill="#ffffff" stroke="transparent" points="-4,4 -4,-280 591,-280 591,4 -4,4"/>
<text text-anchor="start" x="272.5091" y="-42.4" font-family="sans-serif" font-weight="bold" font-size="14.00" fill="#000000">Legend</text>
<polygon fill="#ffffb3" stroke="transparent" points="59.5,-10 59.5,-30 79.5,-30 79.5,-10 59.5,-10"/>
<text text-anchor="start" x="83.129" y="-15.4" font-family="sans-serif" font-size="14.00" fill="#000000"> &#160;Declarations</text>
<polygon fill="#8dd3c7" stroke="transparent" points="172.5,-10 172.5,-30 192.5,-30 192.5,-10 172.5,-10"/>
<text text-anchor="start" x="196.2251" y="-15.4" font-family="sans-serif" font-size="14.00" fill="#000000"> &#160;Module</text>
<polygon fill="#80b1d3" stroke="transparent" points="258.5,-10 258.5,-30 278.5,-30 278.5,-10 258.5,-10"/>
<text text-anchor="start" x="282.2812" y="-15.4" font-family="sans-serif" font-size="14.00" fill="#000000"> &#160;Bootstrap</text>
<polygon fill="#fdb462" stroke="transparent" points="355.5,-10 355.5,-30 375.5,-30 375.5,-10 355.5,-10"/>
<text text-anchor="start" x="379.1732" y="-15.4" font-family="sans-serif" font-size="14.00" fill="#000000"> &#160;Providers</text>
<polygon fill="#fb8072" stroke="transparent" points="451.5,-10 451.5,-30 471.5,-30 471.5,-10 451.5,-10"/>
<text text-anchor="start" x="475.2258" y="-15.4" font-family="sans-serif" font-size="14.00" fill="#000000"> &#160;Exports</text>
<g id="clust1" class="cluster">
<title>cluster_AppModule</title>
<polygon fill="none" stroke="#000000" stroke-dasharray="1,5" points="8,-70 8,-268 579,-268 579,-70 8,-70"/>
</g>
<g id="clust2" class="cluster">
<title>cluster_AppModule_declarations</title>
<polygon fill="none" stroke="#000000" points="449,-78 449,-130 571,-130 571,-78 449,-78"/>
</g>
<g id="clust4" class="cluster">
<title>cluster_AppModule_imports</title>
<polygon fill="none" stroke="#000000" points="172,-78 172,-130 441,-130 441,-78 172,-78"/>
</g>
<g id="clust6" class="cluster">
<title>cluster_AppModule_bootstrap</title>
<polygon fill="none" stroke="#000000" points="239,-208 239,-260 363,-260 363,-208 239,-208"/>
</g>
<g id="clust7" class="cluster">
<title>cluster_AppModule_providers</title>
<polygon fill="none" stroke="#000000" points="16,-78 16,-130 164,-130 164,-78 16,-78"/>
</g>
<!-- AppComponent -->
<g id="node1" class="node">
<title>AppComponent</title>
<polygon fill="#ffffb3" stroke="#000000" points="562.9399,-122 457.0601,-122 457.0601,-86 562.9399,-86 562.9399,-122"/>
<text text-anchor="middle" x="510" y="-99.8" font-family="Times,serif" font-size="14.00" fill="#000000">AppComponent</text>
</g>
<!-- AppModule -->
<g id="node2" class="node">
<title>AppModule</title>
<polygon fill="#8dd3c7" stroke="#000000" points="342.6571,-187 339.6571,-191 318.6571,-191 315.6571,-187 259.3429,-187 259.3429,-151 342.6571,-151 342.6571,-187"/>
<text text-anchor="middle" x="301" y="-164.8" font-family="Times,serif" font-size="14.00" fill="#000000">AppModule</text>
</g>
<!-- AppComponent&#45;&gt;AppModule -->
<g id="edge1" class="edge">
<title>AppComponent&#45;&gt;AppModule</title>
<path fill="none" stroke="#000000" d="M510,-122.1061C510,-141.3391 510,-169 510,-169 510,-169 352.792,-169 352.792,-169"/>
<polygon fill="#000000" stroke="#000000" points="352.792,-165.5001 342.792,-169 352.7919,-172.5001 352.792,-165.5001"/>
</g>
<!-- AppComponent  -->
<g id="node5" class="node">
<title>AppComponent </title>
<polygon fill="#80b1d3" stroke="#000000" points="355.439,-252 246.561,-252 246.561,-216 355.439,-216 355.439,-252"/>
<text text-anchor="middle" x="301" y="-229.8" font-family="Times,serif" font-size="14.00" fill="#000000">AppComponent </text>
</g>
<!-- AppModule&#45;&gt;AppComponent  -->
<g id="edge4" class="edge">
<title>AppModule&#45;&gt;AppComponent </title>
<path fill="none" stroke="#000000" stroke-dasharray="1,5" d="M301,-187.1061C301,-187.1061 301,-205.991 301,-205.991"/>
<polygon fill="#000000" stroke="#000000" points="297.5001,-205.9909 301,-215.991 304.5001,-205.991 297.5001,-205.9909"/>
</g>
<!-- AppRoutingModule -->
<g id="node3" class="node">
<title>AppRoutingModule</title>
<polygon fill="#8dd3c7" stroke="#000000" points="433.2744,-122 430.2744,-126 409.2744,-126 406.2744,-122 304.7256,-122 304.7256,-86 433.2744,-86 433.2744,-122"/>
<text text-anchor="middle" x="369" y="-99.8" font-family="Times,serif" font-size="14.00" fill="#000000">AppRoutingModule</text>
</g>
<!-- AppRoutingModule&#45;&gt;AppModule -->
<g id="edge2" class="edge">
<title>AppRoutingModule&#45;&gt;AppModule</title>
<path fill="none" stroke="#000000" d="M323.7206,-122.1061C323.7206,-122.1061 323.7206,-140.991 323.7206,-140.991"/>
<polygon fill="#000000" stroke="#000000" points="320.2206,-140.9909 323.7206,-150.991 327.2206,-140.991 320.2206,-140.9909"/>
</g>
<!-- WeatherModule -->
<g id="node4" class="node">
<title>WeatherModule</title>
<polygon fill="#8dd3c7" stroke="#000000" points="286.4594,-122 283.4594,-126 262.4594,-126 259.4594,-122 179.5406,-122 179.5406,-86 286.4594,-86 286.4594,-122"/>
<text text-anchor="middle" x="233" y="-99.8" font-family="Times,serif" font-size="14.00" fill="#000000">WeatherModule</text>
</g>
<!-- WeatherModule&#45;&gt;AppModule -->
<g id="edge3" class="edge">
<title>WeatherModule&#45;&gt;AppModule</title>
<path fill="none" stroke="#000000" d="M272.8257,-122.1061C272.8257,-122.1061 272.8257,-140.991 272.8257,-140.991"/>
<polygon fill="#000000" stroke="#000000" points="269.3258,-140.9909 272.8257,-150.991 276.3258,-140.991 269.3258,-140.9909"/>
</g>
<!-- AppConstants -->
<g id="node6" class="node">
<title>AppConstants</title>
<ellipse fill="#fdb462" stroke="#000000" cx="90" cy="-104" rx="65.5122" ry="18"/>
<text text-anchor="middle" x="90" y="-99.8" font-family="Times,serif" font-size="14.00" fill="#000000">AppConstants</text>
</g>
<!-- AppConstants&#45;&gt;AppModule -->
<g id="edge5" class="edge">
<title>AppConstants&#45;&gt;AppModule</title>
<path fill="none" stroke="#000000" d="M90,-122.1061C90,-141.3391 90,-169 90,-169 90,-169 249.3132,-169 249.3132,-169"/>
<polygon fill="#000000" stroke="#000000" points="249.3132,-172.5001 259.3132,-169 249.3132,-165.5001 249.3132,-172.5001"/>
</g>
</g>
</svg>
