<?xml version="1.0" encoding="UTF-8" standalone="no"?>
<!DOCTYPE svg PUBLIC "-//W3C//DTD SVG 1.1//EN"
 "http://www.w3.org/Graphics/SVG/1.1/DTD/svg11.dtd">
<!-- Generated by graphviz version 2.40.1 (20161225.0304)
 -->
<!-- Title: dependencies Pages: 1 -->
<svg width="595pt" height="360pt"
 viewBox="0.00 0.00 595.00 360.00" xmlns="http://www.w3.org/2000/svg" xmlns:xlink="http://www.w3.org/1999/xlink">
<g id="graph0" class="graph" transform="scale(1 1) rotate(0) translate(4 356)">
<title>dependencies</title>
<polygon fill="#ffffff" stroke="transparent" points="-4,4 -4,-356 591,-356 591,4 -4,4"/>
<text text-anchor="start" x="272.5091" y="-42.4" font-family="sans-serif" font-weight="bold" font-size="14.00" fill="#000000">Legend</text>
<polygon fill="#ffffb3" stroke="transparent" points="59.5,-10 59.5,-30 79.5,-30 79.5,-10 59.5,-10"/>
<text text-anchor="start" x="83.129" y="-15.4" font-family="sans-serif" font-size="14.00" fill="#000000"> &#160;Declarations</text>
<polygon fill="#8dd3c7" stroke="transparent" points="172.5,-10 172.5,-30 192.5,-30 192.5,-10 172.5,-10"/>
<text text-anchor="start" x="196.2251" y="-15.4" font-family="sans-serif" font-size="14.00" fill="#000000"> &#160;Module</text>
<polygon fill="#80b1d3" stroke="transparent" points="258.5,-10 258.5,-30 278.5,-30 278.5,-10 258.5,-10"/>
<text text-anchor="start" x="282.2812" y="-15.4" font-family="sans-serif" font-size="14.00" fill="#000000"> &#160;Bootstrap</text>
<polygon fill="#fdb462" stroke="transparent" points="355.5,-10 355.5,-30 375.5,-30 375.5,-10 355.5,-10"/>
<text text-anchor="start" x="379.1732" y="-15.4" font-family="sans-serif" font-size="14.00" fill="#000000"> &#160;Providers</text>
<polygon fill="#fb8072" stroke="transparent" points="451.5,-10 451.5,-30 471.5,-30 471.5,-10 451.5,-10"/>
<text text-anchor="start" x="475.2258" y="-15.4" font-family="sans-serif" font-size="14.00" fill="#000000"> &#160;Exports</text>
<g id="clust1" class="cluster">
<title>cluster_AppModule</title>
<polygon fill="none" stroke="#000000" stroke-dasharray="1,5" points="8,-146 8,-344 579,-344 579,-146 8,-146"/>
</g>
<g id="clust2" class="cluster">
<title>cluster_AppModule_declarations</title>
<polygon fill="none" stroke="#000000" points="449,-154 449,-206 571,-206 571,-154 449,-154"/>
</g>
<g id="clust4" class="cluster">
<title>cluster_AppModule_imports</title>
<polygon fill="none" stroke="#000000" points="172,-154 172,-206 441,-206 441,-154 172,-154"/>
</g>
<g id="clust6" class="cluster">
<title>cluster_AppModule_bootstrap</title>
<polygon fill="none" stroke="#000000" points="239,-284 239,-336 363,-336 363,-284 239,-284"/>
</g>
<g id="clust7" class="cluster">
<title>cluster_AppModule_providers</title>
<polygon fill="none" stroke="#000000" points="16,-154 16,-206 164,-206 164,-154 16,-154"/>
</g>
<g id="clust14" class="cluster">
<title>cluster_WeatherModule</title>
<polygon fill="none" stroke="#000000" stroke-dasharray="1,5" points="59,-70 59,-138 431,-138 431,-70 59,-70"/>
</g>
<g id="clust15" class="cluster">
<title>cluster_WeatherModule_declarations</title>
<polygon fill="none" stroke="#000000" points="67,-78 67,-130 423,-130 423,-78 67,-78"/>
</g>
<!-- AppComponent -->
<g id="node1" class="node">
<title>AppComponent</title>
<polygon fill="#ffffb3" stroke="#000000" points="562.9399,-198 457.0601,-198 457.0601,-162 562.9399,-162 562.9399,-198"/>
<text text-anchor="middle" x="510" y="-175.8" font-family="Times,serif" font-size="14.00" fill="#000000">AppComponent</text>
</g>
<!-- AppModule -->
<g id="node2" class="node">
<title>AppModule</title>
<polygon fill="#8dd3c7" stroke="#000000" points="342.6571,-263 339.6571,-267 318.6571,-267 315.6571,-263 259.3429,-263 259.3429,-227 342.6571,-227 342.6571,-263"/>
<text text-anchor="middle" x="301" y="-240.8" font-family="Times,serif" font-size="14.00" fill="#000000">AppModule</text>
</g>
<!-- AppComponent&#45;&gt;AppModule -->
<g id="edge1" class="edge">
<title>AppComponent&#45;&gt;AppModule</title>
<path fill="none" stroke="#000000" d="M510,-198.1061C510,-217.3391 510,-245 510,-245 510,-245 352.792,-245 352.792,-245"/>
<polygon fill="#000000" stroke="#000000" points="352.792,-241.5001 342.792,-245 352.7919,-248.5001 352.792,-241.5001"/>
</g>
<!-- AppComponent  -->
<g id="node5" class="node">
<title>AppComponent </title>
<polygon fill="#80b1d3" stroke="#000000" points="355.439,-328 246.561,-328 246.561,-292 355.439,-292 355.439,-328"/>
<text text-anchor="middle" x="301" y="-305.8" font-family="Times,serif" font-size="14.00" fill="#000000">AppComponent </text>
</g>
<!-- AppModule&#45;&gt;AppComponent  -->
<g id="edge4" class="edge">
<title>AppModule&#45;&gt;AppComponent </title>
<path fill="none" stroke="#000000" stroke-dasharray="1,5" d="M301,-263.1061C301,-263.1061 301,-281.991 301,-281.991"/>
<polygon fill="#000000" stroke="#000000" points="297.5001,-281.9909 301,-291.991 304.5001,-281.991 297.5001,-281.9909"/>
</g>
<!-- AppRoutingModule -->
<g id="node3" class="node">
<title>AppRoutingModule</title>
<polygon fill="#8dd3c7" stroke="#000000" points="433.2744,-198 430.2744,-202 409.2744,-202 406.2744,-198 304.7256,-198 304.7256,-162 433.2744,-162 433.2744,-198"/>
<text text-anchor="middle" x="369" y="-175.8" font-family="Times,serif" font-size="14.00" fill="#000000">AppRoutingModule</text>
</g>
<!-- AppRoutingModule&#45;&gt;AppModule -->
<g id="edge2" class="edge">
<title>AppRoutingModule&#45;&gt;AppModule</title>
<path fill="none" stroke="#000000" d="M323.7206,-198.1061C323.7206,-198.1061 323.7206,-216.991 323.7206,-216.991"/>
<polygon fill="#000000" stroke="#000000" points="320.2206,-216.9909 323.7206,-226.991 327.2206,-216.991 320.2206,-216.9909"/>
</g>
<!-- WeatherModule -->
<g id="node4" class="node">
<title>WeatherModule</title>
<polygon fill="#8dd3c7" stroke="#000000" points="286.4594,-198 283.4594,-202 262.4594,-202 259.4594,-198 179.5406,-198 179.5406,-162 286.4594,-162 286.4594,-198"/>
<text text-anchor="middle" x="233" y="-175.8" font-family="Times,serif" font-size="14.00" fill="#000000">WeatherModule</text>
</g>
<!-- WeatherModule&#45;&gt;AppModule -->
<g id="edge3" class="edge">
<title>WeatherModule&#45;&gt;AppModule</title>
<path fill="none" stroke="#000000" d="M272.8257,-198.1061C272.8257,-198.1061 272.8257,-216.991 272.8257,-216.991"/>
<polygon fill="#000000" stroke="#000000" points="269.3258,-216.9909 272.8257,-226.991 276.3258,-216.991 269.3258,-216.9909"/>
</g>
<!-- AppConstants -->
<g id="node6" class="node">
<title>AppConstants</title>
<ellipse fill="#fdb462" stroke="#000000" cx="90" cy="-180" rx="65.5122" ry="18"/>
<text text-anchor="middle" x="90" y="-175.8" font-family="Times,serif" font-size="14.00" fill="#000000">AppConstants</text>
</g>
<!-- AppConstants&#45;&gt;AppModule -->
<g id="edge5" class="edge">
<title>AppConstants&#45;&gt;AppModule</title>
<path fill="none" stroke="#000000" d="M90,-198.1061C90,-217.3391 90,-245 90,-245 90,-245 249.3132,-245 249.3132,-245"/>
<polygon fill="#000000" stroke="#000000" points="249.3132,-248.5001 259.3132,-245 249.3132,-241.5001 249.3132,-248.5001"/>
</g>
<!-- WeatherChartComponent -->
<g id="node7" class="node">
<title>WeatherChartComponent</title>
<polygon fill="#ffffb3" stroke="#000000" points="414.8445,-122 255.1555,-122 255.1555,-86 414.8445,-86 414.8445,-122"/>
<text text-anchor="middle" x="335" y="-99.8" font-family="Times,serif" font-size="14.00" fill="#000000">WeatherChartComponent</text>
</g>
<!-- WeatherChartComponent&#45;&gt;WeatherModule -->
<g id="edge6" class="edge">
<title>WeatherChartComponent&#45;&gt;WeatherModule</title>
<path fill="none" stroke="#000000" d="M270.7788,-122.0109C270.7788,-122.0109 270.7788,-151.855 270.7788,-151.855"/>
<polygon fill="#000000" stroke="#000000" points="267.2788,-151.8549 270.7788,-161.855 274.2788,-151.855 267.2788,-151.8549"/>
</g>
<!-- WeatherHomeComponent -->
<g id="node8" class="node">
<title>WeatherHomeComponent</title>
<polygon fill="#ffffb3" stroke="#000000" points="237.4538,-122 74.5462,-122 74.5462,-86 237.4538,-86 237.4538,-122"/>
<text text-anchor="middle" x="156" y="-99.8" font-family="Times,serif" font-size="14.00" fill="#000000">WeatherHomeComponent</text>
</g>
<!-- WeatherHomeComponent&#45;&gt;WeatherModule -->
<g id="edge7" class="edge">
<title>WeatherHomeComponent&#45;&gt;WeatherModule</title>
<path fill="none" stroke="#000000" d="M208.4986,-122.0109C208.4986,-122.0109 208.4986,-151.855 208.4986,-151.855"/>
<polygon fill="#000000" stroke="#000000" points="204.9987,-151.8549 208.4986,-161.855 211.9987,-151.855 204.9987,-151.8549"/>
</g>
</g>
</svg>
